<svg xmlns="http://www.w3.org/2000/svg" viewBox="0 0 382.79 123.22"><defs><style>.cls-1{fill:#292929;}</style></defs><g id="Layer_2" data-name="Layer 2"><g id="Layer_1-2" data-name="Layer 1"><path class="cls-1" d="M81.54.16l-.1,82.47H67.75L67.84.88,34.2,83.31.82,1.68.73,82.1H0L.09.07l15.16,0L40.67,65.3,67.4,0Z"/><path class="cls-1" d="M92.48,43.61a19.91,19.91,0,0,1,8.28-4.31,34,34,0,0,1,12.3-.43,11.91,11.91,0,0,1,8,4.51,13.92,13.92,0,0,1,2.7,8.54l0,30.76H110v-3q-4.62,4.17-9.27,4a12.21,12.21,0,0,1-8.16-3.67,10.65,10.65,0,0,1-3.51-7.77q0-5.13,3-7.54t9.24-4.2A50.52,50.52,0,0,0,110,57.32V43.7q0-4.47-4.31-4.54A19.92,19.92,0,0,0,94.16,43a12.88,12.88,0,0,1,2.27-.29A7.15,7.15,0,0,1,101.67,45a7.45,7.45,0,0,1,2.22,5.42,7.1,7.1,0,0,1-2.24,5.31A7.44,7.44,0,0,1,89,50.42C89,47.92,90.13,45.66,92.48,43.61Zm9.62,34.91q2,2.31,4.21,2a5.89,5.89,0,0,0,3.7-1.9l0-20.29q-5.72,3.28-7.81,5.85t-2.1,8A9.47,9.47,0,0,0,102.1,78.52Z"/><path class="cls-1" d="M134.05,70.24a23.7,23.7,0,0,1,4.27-25A19.16,19.16,0,0,1,153,38.62a19.92,19.92,0,0,1,15.88,7.49h.3A9.09,9.09,0,0,0,176,43.26a9.3,9.3,0,0,0,2.79-6.73,8.82,8.82,0,0,0-3.14-7A7.42,7.42,0,0,1,176.86,34a7.56,7.56,0,0,1-2.13,5.49,7.15,7.15,0,0,1-5.42,2.19,6.91,6.91,0,0,1-5.24-2.2A7.68,7.68,0,0,1,162,34a7.27,7.27,0,0,1,2.17-5.31,7,7,0,0,1,5.17-2.16,10.11,10.11,0,0,1,7.21,2.94,9.58,9.58,0,0,1,3,7.15,9.77,9.77,0,0,1-3,7.17,10.86,10.86,0,0,1-7.26,3.18,22,22,0,0,1,5.11,14.36,21.9,21.9,0,0,1-6.31,15.81,20.32,20.32,0,0,1-15.17,6.5,19.45,19.45,0,0,1-11.24-3.38,21.19,21.19,0,0,1-7.5-9.24,10,10,0,0,0-2.28,6.3,8.49,8.49,0,0,0,4.57,8.06,27.64,27.64,0,0,0,11.17,3q6.58.53,13.22,1.26a20.73,20.73,0,0,1,11.2,4.52q4.58,3.77,4.56,11.1,0,7.17-6,12.59t-16,5.4q-11.58,0-18.6-5.44a7.48,7.48,0,0,1-3.51-6.45,7.7,7.7,0,0,1,7.55-7.61,7.17,7.17,0,0,1,5.24,2.24,7.35,7.35,0,0,1,2.23,5.39,7.47,7.47,0,0,1-2.24,5.41A7.1,7.1,0,0,1,140,119a5.1,5.1,0,0,1-1.39-.15,21.94,21.94,0,0,0,11.56,3q7,0,11-3.14c2.66-2.1,4-4.56,4-7.39a8.21,8.21,0,0,0-3.65-7.3,24,24,0,0,0-9-3.45q-5.34-1-10.65-2.32a18.3,18.3,0,0,1-9-5.17q-3.7-3.85-3.69-10.74A16.77,16.77,0,0,1,134.05,70.24Zm11.5-.79a47.6,47.6,0,0,0,.94,6.81,9.72,9.72,0,0,0,2.45,5.1A5.92,5.92,0,0,0,153.22,83q4.62,0,6.31-5.85T161.23,61q0-10.32-1.63-16t-6.29-5.64q-4.65,0-6.31,5.63t-1.66,16Q145.33,66.08,145.55,69.45Z"/><path class="cls-1" d="M184.39,43.71a20.13,20.13,0,0,1,8.29-4.31A34.18,34.18,0,0,1,205,39a12,12,0,0,1,8,4.52,13.89,13.89,0,0,1,2.7,8.53l0,30.77-13.69,0v-3q-4.62,4.17-9.27,3.94A12.17,12.17,0,0,1,184.5,80,10.65,10.65,0,0,1,181,72.27q0-5.13,3-7.54t9.24-4.2a50.71,50.71,0,0,0,8.72-3.1V43.81q0-4.47-4.31-4.55a19.86,19.86,0,0,0-11.58,3.87,12,12,0,0,1,2.27-.29,7.1,7.1,0,0,1,5.23,2.27,7.48,7.48,0,0,1,2.23,5.43,7.06,7.06,0,0,1-2.24,5.3A7.3,7.3,0,0,1,188.33,58a7.39,7.39,0,0,1-7.46-7.48C180.87,48,182.05,45.76,184.39,43.71ZM194,78.62c1.32,1.54,2.72,2.22,4.21,2a5.82,5.82,0,0,0,3.7-1.9l0-20.29q-5.73,3.3-7.81,5.85c-1.4,1.71-2.09,4.37-2.1,8A9.46,9.46,0,0,0,194,78.62Z"/><path class="cls-1" d="M260.74,82.1v.74l-39.62,0,24.8-42.45-21.9,0v-.58l37.06,0L237.82,82.08Z"/><path class="cls-1" d="M280.66,20.75a7.55,7.55,0,0,1,2.19,5.42,7.4,7.4,0,0,1-2.2,5.38,7.39,7.39,0,0,1-10.59,0,7.33,7.33,0,0,1-2.22-5.38,7.46,7.46,0,0,1,2.24-5.42,7.12,7.12,0,0,1,5.24-2.27A7.2,7.2,0,0,1,280.66,20.75Zm-12.11,19h13.63l-.05,43.07H268.5Z"/><path class="cls-1" d="M331.61,45.27q3.66,4.18,3.65,11.14l0,26.51H321.46l0-37.36a7.39,7.39,0,0,0-1.13-4.5c-.75-1-2.18-1.51-4.28-1.51a19.1,19.1,0,0,0-8.72,2.26l-.05,41.09-13.62,0,.05-43.06h13.62v1.39a20.38,20.38,0,0,1,13.33-2.4,6.74,6.74,0,0,1,2.27.59A19.9,19.9,0,0,1,331.61,45.27Z"/><path class="cls-1" d="M382.79,61.22l-27.76,0q0,4,.21,6.81a59.8,59.8,0,0,0,.91,6.38,12.94,12.94,0,0,0,2.48,5.79,7.84,7.84,0,0,0,4.5,2.78q5.28,1,11.25-3.83t7.52-11h.59a22.51,22.51,0,0,1-7.08,11.23,17.9,17.9,0,0,1-12.28,4.78A21.3,21.3,0,0,1,347.61,78q-6.21-6.09-6.2-16.56a22.42,22.42,0,0,1,6.31-16q6.31-6.66,14.66-6.65,7.62,0,13.65,6.46a24.76,24.76,0,0,1,6.76,15.32Zm-12.89-.74q-.27-20.59-7.38-20.59-7.47,0-7.49,20.57Z"/><path class="cls-1" d="M215.8,115.12V104.57H213v-.5h2.85V99H219v5h5v.5h-5V116c0,1.8.35,3.7,1.7,3.7s2.75-1.5,3.2-3.15l.45.15a4.52,4.52,0,0,1-4.15,3.6C216.75,120.27,215.8,118.37,215.8,115.12Z"/><path class="cls-1" d="M235.6,118.62c-2.9,2.95-8.3,1.5-8.7-1.4-.7-5.2,8.7-5.2,8.7-7.6,0-4.6-.25-5.55-2.85-5.55-1.35,0-2.65.55-2.65.9,0,.1.25.2.35.3a1.7,1.7,0,0,1,.55,1.25,1.58,1.58,0,0,1-1.6,1.6,1.65,1.65,0,0,1-1.6-1.75c0-1.8,3.1-2.8,5-2.8,3.25,0,5.9,1.6,5.9,6v10.3H235.6Zm0-7.65c-2.25,1.25-6.15,2.6-5.8,6,.25,2.25,3.8,3.4,5.8.85Z"/><path class="cls-1" d="M242.35,113.87v-9.8h3.05V115c0,2.3.45,4.8,2.9,4.8a4.65,4.65,0,0,0,4-2.6v-13.1h3.15v15.8h-3.15V118a4.86,4.86,0,0,1-4,2.25C244.5,120.27,242.35,118.37,242.35,113.87Z"/><path class="cls-1" d="M269.8,104.07H273v1.8a5,5,0,0,1,4.1-2.2c3.75,0,5.9,2.3,5.9,6.35v9.85h-3V109c0-3.4-1-4.85-2.9-4.85a4.66,4.66,0,0,0-4.1,2.6v13.15H269.8Z"/><path class="cls-1" d="M287.05,93.72h3.15v12.15a5,5,0,0,1,4.1-2.2c3.75,0,5.9,2.3,5.9,6.35v9.85h-3V109c0-3.4-1-4.85-2.9-4.85a4.66,4.66,0,0,0-4.1,2.6v13.15h-3.15Z"/><path class="cls-1" d="M312.55,118.62c-2.9,2.95-8.3,1.5-8.7-1.4-.7-5.2,8.7-5.2,8.7-7.6,0-4.6-.25-5.55-2.85-5.55-1.35,0-2.65.55-2.65.9,0,.1.25.2.35.3a1.7,1.7,0,0,1,.55,1.25,1.58,1.58,0,0,1-1.6,1.6,1.65,1.65,0,0,1-1.6-1.75c0-1.8,3.1-2.8,5.05-2.8,3.25,0,5.9,1.6,5.9,6v10.3h-3.15Zm0-7.65c-2.25,1.25-6.15,2.6-5.8,6,.25,2.25,3.8,3.4,5.8.85Z"/><path class="cls-1" d="M319.79,104.07h3.15v1.8a5,5,0,0,1,4.11-2.2c3.75,0,5.9,2.3,5.9,6.35v9.85h-3V109c0-3.4-1-4.85-2.9-4.85a4.69,4.69,0,0,0-4.11,2.6v13.15h-3.15Z"/><path class="cls-1" d="M337,93.72h3.15v12.15a5,5,0,0,1,4.1-2.2c3.75,0,5.9,2.3,5.9,6.35v9.85h-3V109c0-3.4-1-4.85-2.9-4.85a4.66,4.66,0,0,0-4.1,2.6v13.15H337Z"/><path class="cls-1" d="M233.73,101c.2.25.2.45,0,.6a.38.38,0,0,1-.25.1l-.35-.1-3-3.35c-.15-.25-.15-.45.05-.6a.39.39,0,0,1,.55,0Z"/></g></g></svg>